<svg xmlns="http://www.w3.org/2000/svg" width="24" height="24" viewBox="0 0 24 24">
  <path fill="#C9C9C9" fill-rule="evenodd" d="M11.3637795,11.2623688 C11.3637795,11.5482273 11.5139093,11.6911544 11.8141732,11.6911544 C12.4692946,11.6911544 12.9981607,11.648926 13.4007874,11.5644678 C13.8034141,11.4800096 14.1139097,11.3403308 14.3322835,11.1454273 C14.5506573,10.9505238 14.6939629,10.7036497 14.7622047,10.4047976 C14.8304465,10.1059455 14.8645669,9.74213108 14.8645669,9.31334333 C14.8645669,8.5467228 14.7314974,7.96851769 14.4653543,7.57871064 C14.1992113,7.1889036 13.6635211,6.994003 12.8582677,6.994003 C12.3259816,6.994003 11.9438332,7.04272815 11.711811,7.14017991 C11.4797889,7.23763167 11.3637795,7.38380712 11.3637795,7.57871064 L11.3637795,11.2623688 Z M7.98582677,8.06596702 C7.98582677,7.26036579 7.32389113,6.85757121 6,6.85757121 L6,6 L13.0629921,6 C14.7417407,6 16.0144314,6.23388072 16.8811024,6.70164918 C17.7477734,7.16941763 18.1811024,7.97500678 18.1811024,9.11844078 C18.1811024,9.92404201 17.9286114,10.5477239 17.423622,10.9895052 C16.9186326,11.4312866 16.1952803,11.7626176 15.2535433,11.9835082 C15.8404229,12.0744632 16.369289,12.1979003 16.8401575,12.3538231 C17.311026,12.5097459 17.7034105,12.7208882 18.0173228,12.9872564 C18.3312352,13.2536245 18.57349,13.5849555 18.7440945,13.9812594 C18.914699,14.3775632 19,14.8550697 19,15.4137931 C19,16.1414329 18.8532823,16.7391281 18.5598425,17.2068966 C18.2664027,17.674665 17.8671941,18.0417278 17.3622047,18.308096 C16.8572153,18.5744641 16.2771686,18.7563713 15.6220472,18.8538231 C14.9669259,18.9512749 14.2776939,19 13.5543307,19 C12.3942199,19 11.2102423,18.990255 10.0023622,18.9707646 C8.79448215,18.9512743 7.48767107,18.9350325 6.08188976,18.922039 L6.08188976,18.1034483 C7.35118745,18.1034483 7.98582677,17.7851106 7.98582677,17.1484258 L7.98582677,8.06596702 Z M11.3637795,17.4017991 C11.3637795,17.6096962 11.4866129,17.7656167 11.7322835,17.8695652 C11.977954,17.9735138 12.3942228,18.0254873 12.9811024,18.0254873 C13.8545975,18.0254873 14.502885,17.8273383 14.9259843,17.4310345 C15.3490835,17.0347307 15.5606299,16.3558269 15.5606299,15.3943028 C15.5606299,14.8225858 15.4889771,14.3580728 15.3456693,14.0007496 C15.2023615,13.6434265 14.9805789,13.3673173 14.680315,13.1724138 C14.380051,12.9775103 13.9910785,12.8443282 13.5133858,12.7728636 C13.0356931,12.7013989 12.4692946,12.6656672 11.8141732,12.6656672 C11.5139093,12.6656672 11.3637795,12.8670645 11.3637795,13.2698651 L11.3637795,17.4017991 Z"/>
</svg>
