<svg xmlns="http://www.w3.org/2000/svg" width="24" height="24" viewBox="0 0 24 24">
  <path fill="#C9C9C9" fill-rule="evenodd" d="M8.73569132,19 L8.73569132,18.1574074 C10.0801782,18.1574074 10.7524116,17.7494897 10.7524116,16.933642 L10.7524116,12.8811728 C10.615219,12.8143001 10.4265821,12.7574591 10.1864952,12.7106481 C9.94640823,12.6638372 9.66173798,12.6404321 9.33247588,12.6404321 L6.86302251,12.6404321 C6.35541011,12.6404321 5.90954104,12.7206782 5.52540193,12.8811728 L5.52540193,16.933642 C5.52540193,17.7494897 6.1427591,18.1574074 7.37749196,18.1574074 L7.37749196,19 L0.0720257235,19 L0.0720257235,18.1574074 C1.45767038,18.1574074 2.15048232,17.7494897 2.15048232,16.933642 L2.07845659,8.46759259 C2.07845659,7.41100295 1.38564466,6.88271605 1.77635684e-15,6.88271605 L1.77635684e-15,6 L7.30546624,6 L7.30546624,6.88271605 C6.07073338,6.88271605 5.45337621,7.41100295 5.45337621,8.46759259 L5.52540193,11.4367284 C5.73119074,11.5036012 5.93697646,11.5504114 6.14276527,11.5771605 C6.34855408,11.6039096 6.58863743,11.617284 6.86302251,11.617284 L9.33247588,11.617284 C10.0458771,11.617284 10.5191843,11.5637865 10.7524116,11.4567901 L10.6803859,8.46759259 C10.6803859,7.41100295 10.0081525,6.88271605 8.66366559,6.88271605 L8.66366559,6 L15.9279743,6 L15.9279743,6.88271605 C14.6795222,6.88271605 14.0553055,7.41100295 14.0553055,8.46759259 L14.1273312,16.933642 C14.1273312,17.7494897 14.7515479,18.1574074 16,18.1574074 L16,19 L8.73569132,19 Z M18.3466667,14.0066667 C18.6888906,13.9711109 19.0011097,13.8988894 19.2833333,13.79 C19.565557,13.6811106 19.8088879,13.541112 20.0133333,13.37 C20.2177788,13.198888 20.375555,12.99889 20.4866667,12.77 C20.5977783,12.54111 20.6533333,12.2911125 20.6533333,12.02 C20.6533333,11.8466658 20.6233336,11.6833341 20.5633333,11.53 C20.503333,11.3766659 20.4200005,11.244445 20.3133333,11.1333333 C20.2066661,11.0222217 20.0777785,10.9344448 19.9266667,10.87 C19.7755548,10.8055552 19.6088898,10.7733333 19.4266667,10.7733333 C19.2977771,10.7733333 19.1555563,10.8066663 19,10.8733333 C18.8444437,10.9400003 18.6900008,11.0299994 18.5366667,11.1433333 C18.3833326,11.2566672 18.2355563,11.3888881 18.0933333,11.54 C17.9511104,11.6911119 17.8288894,11.8533325 17.7266667,12.0266667 L16.8866667,11.6466667 C16.9977783,11.3444429 17.1444435,11.0611124 17.3266667,10.7966667 C17.5088898,10.5322209 17.7277765,10.3011121 17.9833333,10.1033333 C18.2388902,9.90555457 18.5299984,9.75000057 18.8566667,9.63666667 C19.183335,9.52333277 19.5466647,9.46666667 19.9466667,9.46666667 C20.3288908,9.46666667 20.686665,9.51888837 21.02,9.62333333 C21.353335,9.7277783 21.6444432,9.8733324 21.8933333,10.06 C22.1422235,10.2466676 22.3388882,10.4666654 22.4833333,10.72 C22.6277785,10.9733346 22.7,11.2488874 22.7,11.5466667 C22.7,11.6755562 22.6677781,11.8211103 22.6033333,11.9833333 C22.5388886,12.1455564 22.4500006,12.3111103 22.3366667,12.48 C22.2233328,12.6488897 22.0866675,12.8177769 21.9266667,12.9866667 C21.7666659,13.1555564 21.5933343,13.3133326 21.4066667,13.46 C21.6600013,13.5711117 21.8966656,13.7144436 22.1166667,13.89 C22.3366678,14.0655564 22.5266659,14.2599989 22.6866667,14.4733333 C22.8466675,14.6866677 22.9722218,14.9133321 23.0633333,15.1533333 C23.1544449,15.3933345 23.2,15.6311099 23.2,15.8666667 C23.2,16.4266695 23.0855567,16.9155535 22.8566667,17.3333333 C22.6277766,17.7511132 22.3133353,18.0999986 21.9133333,18.38 C21.5133313,18.6600014 21.0411138,18.8688882 20.4966667,19.0066667 C19.9522195,19.1444451 19.3666698,19.2133333 18.74,19.2133333 C18.4333318,19.2133333 18.157779,19.1911113 17.9133333,19.1466667 C17.6688877,19.102222 17.461112,19.0388893 17.29,18.9566667 C17.118888,18.874444 16.9888893,18.7766672 16.9,18.6633333 C16.8111107,18.5499994 16.7666667,18.4266673 16.7666667,18.2933333 C16.7666667,18.1599993 16.803333,18.0500004 16.8766667,17.9633333 C16.9500004,17.8766662 17.0422217,17.807778 17.1533333,17.7566667 C17.264445,17.7055553 17.3844438,17.668889 17.5133333,17.6466667 C17.6422229,17.6244443 17.7622217,17.6133333 17.8733333,17.6133333 C18.1088901,17.6133333 18.3166658,17.6466663 18.4966667,17.7133333 C18.6766676,17.7800003 18.8399993,17.8533329 18.9866667,17.9333333 L19.39,18.1533333 C19.5122228,18.2200003 19.6377771,18.2533333 19.7666667,18.2533333 C20.0200013,18.2533333 20.2433324,18.2066671 20.4366667,18.1133333 C20.630001,18.0199995 20.7922216,17.8955563 20.9233333,17.74 C21.0544451,17.5844437 21.153333,17.4055566 21.22,17.2033333 C21.286667,17.0011101 21.32,16.78889 21.32,16.5666667 C21.32,16.2822208 21.2600006,16.0188901 21.14,15.7766667 C21.0199994,15.5344432 20.837779,15.3233342 20.5933333,15.1433333 C20.3488877,14.9633324 20.0400019,14.8222227 19.6666667,14.72 C19.2933315,14.6177773 18.8533359,14.5666667 18.3466667,14.5666667 L18.3466667,14.0066667 Z"/>
</svg>
