<svg xmlns="http://www.w3.org/2000/svg" width="24" height="24" viewBox="0 0 24 24">
  <path fill="#C9C9C9" fill-rule="evenodd" d="M8.73569132,18 L8.73569132,17.1574074 C10.0801782,17.1574074 10.7524116,16.7494897 10.7524116,15.933642 L10.7524116,11.8811728 C10.615219,11.8143001 10.4265821,11.7574591 10.1864952,11.7106481 C9.94640823,11.6638372 9.66173798,11.6404321 9.33247588,11.6404321 L6.86302251,11.6404321 C6.35541011,11.6404321 5.90954104,11.7206782 5.52540193,11.8811728 L5.52540193,15.933642 C5.52540193,16.7494897 6.1427591,17.1574074 7.37749196,17.1574074 L7.37749196,18 L0.0720257235,18 L0.0720257235,17.1574074 C1.45767038,17.1574074 2.15048232,16.7494897 2.15048232,15.933642 L2.07845659,7.46759259 C2.07845659,6.41100295 1.38564466,5.88271605 1.77635684e-15,5.88271605 L1.77635684e-15,5 L7.30546624,5 L7.30546624,5.88271605 C6.07073338,5.88271605 5.45337621,6.41100295 5.45337621,7.46759259 L5.52540193,10.4367284 C5.73119074,10.5036012 5.93697646,10.5504114 6.14276527,10.5771605 C6.34855408,10.6039096 6.58863743,10.617284 6.86302251,10.617284 L9.33247588,10.617284 C10.0458771,10.617284 10.5191843,10.5637865 10.7524116,10.4567901 L10.6803859,7.46759259 C10.6803859,6.41100295 10.0081525,5.88271605 8.66366559,5.88271605 L8.66366559,5 L15.9279743,5 L15.9279743,5.88271605 C14.6795222,5.88271605 14.0553055,6.41100295 14.0553055,7.46759259 L14.1273312,15.933642 C14.1273312,16.7494897 14.7515479,17.1574074 16,17.1574074 L16,18 L8.73569132,18 Z M22.5066667,10.14 L19.5933333,10.14 L19.1133333,11.0266667 C19.6377804,11.0755558 20.1422198,11.1977768 20.6266667,11.3933333 C21.1111135,11.5888899 21.5399981,11.8466651 21.9133333,12.1666667 C22.2866685,12.4866683 22.5844433,12.861109 22.8066667,13.29 C23.02889,13.718891 23.14,14.1911085 23.14,14.7066667 C23.14,15.1866691 23.0266678,15.6399979 22.8,16.0666667 C22.5733322,16.4933355 22.2622242,16.865554 21.8666667,17.1833333 C21.4711091,17.5011127 21.0066693,17.7522213 20.4733333,17.9366667 C19.9399973,18.121112 19.3688919,18.2133333 18.76,18.2133333 C18.4533318,18.2133333 18.1733346,18.1844447 17.92,18.1266667 C17.6666654,18.0688886 17.4500009,17.9911116 17.27,17.8933333 C17.0899991,17.7955551 16.9500005,17.6822229 16.85,17.5533333 C16.7499995,17.4244438 16.7,17.2888896 16.7,17.1466667 C16.7,17.035555 16.7277775,16.9388893 16.7833333,16.8566667 C16.8388892,16.774444 16.9133329,16.7055558 17.0066667,16.65 C17.1000005,16.5944442 17.2077772,16.5533335 17.33,16.5266667 C17.4522228,16.4999999 17.5777771,16.4866667 17.7066667,16.4866667 C17.9111121,16.4866667 18.0911103,16.5211108 18.2466667,16.59 C18.402223,16.6588892 18.5511104,16.734444 18.6933333,16.8166667 C18.8355563,16.8988893 18.9799993,16.9744441 19.1266667,17.0433333 C19.2733341,17.1122226 19.4399991,17.1466667 19.6266667,17.1466667 C19.8666679,17.1466667 20.0922212,17.0933339 20.3033333,16.9866667 C20.5144455,16.8799995 20.6999992,16.7344454 20.86,16.55 C21.0200008,16.3655546 21.1455551,16.1511123 21.2366667,15.9066667 C21.3277782,15.662221 21.3733333,15.4000014 21.3733333,15.12 C21.3733333,14.7288869 21.2655566,14.374446 21.05,14.0566667 C20.8344434,13.7388873 20.5288909,13.46889 20.1333333,13.2466667 C19.7377758,13.0244433 19.2600028,12.8522228 18.7,12.73 C18.1399972,12.6077772 17.515559,12.5466667 16.8266667,12.5466667 L18.9466667,8.68 L23.2466667,8.68 L22.5066667,10.14 Z" transform="translate(0 1)"/>
</svg>
