<svg xmlns="http://www.w3.org/2000/svg" width="24" height="24" viewBox="0 0 24 24">
  <path fill="#C9C9C9" fill-rule="evenodd" d="M8.73569132,19 L8.73569132,18.1574074 C10.0801782,18.1574074 10.7524116,17.7494897 10.7524116,16.933642 L10.7524116,12.8811728 C10.615219,12.8143001 10.4265821,12.7574591 10.1864952,12.7106481 C9.94640823,12.6638372 9.66173798,12.6404321 9.33247588,12.6404321 L6.86302251,12.6404321 C6.35541011,12.6404321 5.90954104,12.7206782 5.52540193,12.8811728 L5.52540193,16.933642 C5.52540193,17.7494897 6.1427591,18.1574074 7.37749196,18.1574074 L7.37749196,19 L0.0720257235,19 L0.0720257235,18.1574074 C1.45767038,18.1574074 2.15048232,17.7494897 2.15048232,16.933642 L2.07845659,8.46759259 C2.07845659,7.41100295 1.38564466,6.88271605 1.77635684e-15,6.88271605 L1.77635684e-15,6 L7.30546624,6 L7.30546624,6.88271605 C6.07073338,6.88271605 5.45337621,7.41100295 5.45337621,8.46759259 L5.52540193,11.4367284 C5.73119074,11.5036012 5.93697646,11.5504114 6.14276527,11.5771605 C6.34855408,11.6039096 6.58863743,11.617284 6.86302251,11.617284 L9.33247588,11.617284 C10.0458771,11.617284 10.5191843,11.5637865 10.7524116,11.4567901 L10.6803859,8.46759259 C10.6803859,7.41100295 10.0081525,6.88271605 8.66366559,6.88271605 L8.66366559,6 L15.9279743,6 L15.9279743,6.88271605 C14.6795222,6.88271605 14.0553055,7.41100295 14.0553055,8.46759259 L14.1273312,16.933642 C14.1273312,17.7494897 14.7515479,18.1574074 16,18.1574074 L16,19 L8.73569132,19 Z M16.4333333,19 L16.4333333,18.56 C17.1044478,17.9244413 17.684442,17.365558 18.1733333,16.8833333 C18.6622247,16.4011087 19.076665,15.9744463 19.4166667,15.6033333 C19.7566684,15.2322204 20.0322212,14.9088903 20.2433333,14.6333333 C20.4544455,14.3577764 20.6177772,14.1122233 20.7333333,13.8966667 C20.8488895,13.68111 20.9266665,13.4833342 20.9666667,13.3033333 C21.0066669,13.1233324 21.0266667,12.9444453 21.0266667,12.7666667 C21.0266667,12.522221 20.9933337,12.2866678 20.9266667,12.06 C20.8599997,11.8333322 20.7622229,11.6322231 20.6333333,11.4566667 C20.5044438,11.2811102 20.3422232,11.1411116 20.1466667,11.0366667 C19.9511101,10.9322217 19.7266679,10.88 19.4733333,10.88 C19.2688879,10.88 19.0677788,10.9222218 18.87,11.0066667 C18.6722212,11.0911115 18.492223,11.2066659 18.33,11.3533333 C18.167777,11.5000007 18.0288895,11.6711101 17.9133333,11.8666667 C17.7977772,12.0622232 17.7200002,12.27111 17.68,12.4933333 L16.66,12.4933333 C16.6911113,12.0755535 16.8011102,11.6822241 16.99,11.3133333 C17.1788898,10.9444426 17.4222207,10.6233347 17.72,10.35 C18.0177793,10.0766653 18.3577759,9.8611119 18.74,9.70333333 C19.1222241,9.54555477 19.5244423,9.46666667 19.9466667,9.46666667 C20.4711137,9.46666667 20.9333313,9.53777707 21.3333333,9.68 C21.7333353,9.82222293 22.0666653,10.0144432 22.3333333,10.2566667 C22.6000013,10.4988901 22.8011104,10.7788873 22.9366667,11.0966667 C23.0722229,11.414446 23.14,11.7488871 23.14,12.1 C23.14,12.4377795 23.0600008,12.7888871 22.9,13.1533333 C22.7399992,13.5177796 22.4922239,13.9177756 22.1566667,14.3533333 C21.8211094,14.7888911 21.394447,15.2733307 20.8766667,15.8066667 C20.3588863,16.3400027 19.7422258,16.9444411 19.0266667,17.62 L23.6533333,17.62 L22.82,19 L16.4333333,19 Z"/>
</svg>
