<svg xmlns="http://www.w3.org/2000/svg" width="24" height="24" viewBox="0 0 24 24">
  <path fill="#C9C9C9" fill-rule="evenodd" d="M8.73569132,19 L8.73569132,18.1574074 C10.0801782,18.1574074 10.7524116,17.7494897 10.7524116,16.933642 L10.7524116,12.8811728 C10.615219,12.8143001 10.4265821,12.7574591 10.1864952,12.7106481 C9.94640823,12.6638372 9.66173798,12.6404321 9.33247588,12.6404321 L6.86302251,12.6404321 C6.35541011,12.6404321 5.90954104,12.7206782 5.52540193,12.8811728 L5.52540193,16.933642 C5.52540193,17.7494897 6.1427591,18.1574074 7.37749196,18.1574074 L7.37749196,19 L0.0720257235,19 L0.0720257235,18.1574074 C1.45767038,18.1574074 2.15048232,17.7494897 2.15048232,16.933642 L2.07845659,8.46759259 C2.07845659,7.41100295 1.38564466,6.88271605 1.77635684e-15,6.88271605 L1.77635684e-15,6 L7.30546624,6 L7.30546624,6.88271605 C6.07073338,6.88271605 5.45337621,7.41100295 5.45337621,8.46759259 L5.52540193,11.4367284 C5.73119074,11.5036012 5.93697646,11.5504114 6.14276527,11.5771605 C6.34855408,11.6039096 6.58863743,11.617284 6.86302251,11.617284 L9.33247588,11.617284 C10.0458771,11.617284 10.5191843,11.5637865 10.7524116,11.4567901 L10.6803859,8.46759259 C10.6803859,7.41100295 10.0081525,6.88271605 8.66366559,6.88271605 L8.66366559,6 L15.9279743,6 L15.9279743,6.88271605 C14.6795222,6.88271605 14.0553055,7.41100295 14.0553055,8.46759259 L14.1273312,16.933642 C14.1273312,17.7494897 14.7515479,18.1574074 16,18.1574074 L16,19 L8.73569132,19 Z M20.02,19 L20.02,11.8333333 L17.7666667,11.8333333 L17.7666667,11.3666667 C18.2333357,11.3311109 18.6277762,11.265556 18.95,11.17 C19.2722238,11.074444 19.5433322,10.9500008 19.7633333,10.7966667 C19.9833344,10.6433326 20.1633326,10.45889 20.3033333,10.2433333 C20.443334,10.0277767 20.5688883,9.7822236 20.68,9.50666667 L22.0733333,9.50666667 L22.0733333,19 L20.02,19 Z"/>
</svg>
