<svg xmlns="http://www.w3.org/2000/svg" width="24" height="24" viewBox="0 0 24 24">
  <path fill="#C9C9C9" fill-rule="evenodd" d="M12.7356913,19 L12.7356913,18.1574074 C14.0801782,18.1574074 14.7524116,17.7494897 14.7524116,16.933642 L14.7524116,12.8811728 C14.615219,12.8143001 14.4265821,12.7574591 14.1864952,12.7106481 C13.9464082,12.6638372 13.661738,12.6404321 13.3324759,12.6404321 L10.8630225,12.6404321 C10.3554101,12.6404321 9.90954104,12.7206782 9.52540193,12.8811728 L9.52540193,16.933642 C9.52540193,17.7494897 10.1427591,18.1574074 11.377492,18.1574074 L11.377492,19 L4.07202572,19 L4.07202572,18.1574074 C5.45767038,18.1574074 6.15048232,17.7494897 6.15048232,16.933642 L6.07845659,8.46759259 C6.07845659,7.41100295 5.38564466,6.88271605 4,6.88271605 L4,6 L11.3054662,6 L11.3054662,6.88271605 C10.0707334,6.88271605 9.45337621,7.41100295 9.45337621,8.46759259 L9.52540193,11.4367284 C9.73119074,11.5036012 9.93697646,11.5504114 10.1427653,11.5771605 C10.3485541,11.6039096 10.5886374,11.617284 10.8630225,11.617284 L13.3324759,11.617284 C14.0458771,11.617284 14.5191843,11.5637865 14.7524116,11.4567901 L14.6803859,8.46759259 C14.6803859,7.41100295 14.0081525,6.88271605 12.6636656,6.88271605 L12.6636656,6 L19.9279743,6 L19.9279743,6.88271605 C18.6795222,6.88271605 18.0553055,7.41100295 18.0553055,8.46759259 L18.1273312,16.933642 C18.1273312,17.7494897 18.7515479,18.1574074 20,18.1574074 L20,19 L12.7356913,19 Z"/>
</svg>
