<svg xmlns="http://www.w3.org/2000/svg" width="24" height="24" viewBox="0 0 24 24">
  <path fill="#C9C9C9" fill-rule="evenodd" d="M13.6223776,19 L6,19 L6.27272727,18 L7.03756429,18 L7.03756429,18 C7.90851983,18 8.67933895,17.4363633 8.94341585,16.6064073 L11.5438787,8.43352402 L11.5438787,8.43352402 C11.728079,7.85460901 11.4080994,7.23598187 10.8291844,7.05178164 C10.7213356,7.01746611 10.6088369,7 10.4956604,7 L9.77272727,7 L10.0454545,6 L17.5,6 L17.2272727,7 L16.6897084,7 L16.6897084,7 C15.8187529,7 15.0479338,7.5636367 14.7838569,8.39359269 L12.1419284,16.6967963 L12.1419284,16.6967963 C11.9744737,17.2230827 12.2653642,17.785471 12.7916506,17.9529258 C12.8896949,17.9841217 12.9919665,18 13.0948542,18 L13.8951049,18 L13.6223776,19 Z" transform="translate(0 -1)"/>
</svg>
