<svg xmlns="http://www.w3.org/2000/svg" width="24" height="24" viewBox="0 0 24 24">
  <path fill="#C9C9C9" fill-rule="evenodd" d="M11.2641602,17.5522461 L20.2641602,17.5522461 L20.2641602,19.5522461 L11.2641602,19.5522461 L11.2641602,17.5522461 Z M11.2641602,13.5522461 L20.2641602,13.5522461 L20.2641602,15.5522461 L11.2641602,15.5522461 L11.2641602,13.5522461 Z M11.2641602,9.55224609 L20.2641602,9.55224609 L20.2641602,11.5522461 L11.2641602,11.5522461 L11.2641602,9.55224609 Z M11.2641602,5.55224609 L20.2641602,5.55224609 L20.2641602,7.55224609 L11.2641602,7.55224609 L11.2641602,5.55224609 Z M8.18798828,5 L8.18798828,11.5522461 L6.37744141,11.5522461 L6.37744141,7.25878906 C6.08447119,7.48144643 5.80102676,7.66162041 5.52709961,7.79931641 C5.25317246,7.93701241 4.90967003,8.06884703 4.49658203,8.19482422 L4.49658203,6.72705078 C5.10596008,6.53076074 5.57909988,6.29492325 5.91601562,6.01953125 C6.25293137,5.74413925 6.51660061,5.4042989 6.70703125,5 L8.18798828,5 Z M9.37011719,19.5522461 L4,19.5522461 C4.06152375,19.02197 4.24828946,18.5231957 4.56030273,18.0559082 C4.87231601,17.5886207 5.45751524,17.0371126 6.31591797,16.4013672 C6.84033465,16.0117168 7.17578052,15.7158213 7.32226562,15.5136719 C7.46875073,15.3115224 7.54199219,15.1196298 7.54199219,14.9379883 C7.54199219,14.7416982 7.46948315,14.5739753 7.32446289,14.4348145 C7.17944263,14.2956536 6.99707141,14.2260742 6.77734375,14.2260742 C6.54882698,14.2260742 6.36206127,14.2978508 6.21704102,14.4414062 C6.07202076,14.5849617 5.97460962,14.8383771 5.92480469,15.2016602 L4.13183594,15.0566406 C4.20214879,14.5527319 4.33105375,14.1594252 4.51855469,13.876709 C4.70605563,13.5939927 4.97045728,13.377198 5.31176758,13.2263184 C5.65307788,13.0754387 6.12548526,13 6.72900391,13 C7.35888987,13 7.8488752,13.0717766 8.19897461,13.215332 C8.54907402,13.3588874 8.82446189,13.5793442 9.02514648,13.876709 C9.22583108,14.1740738 9.32617188,14.5073224 9.32617188,14.8764648 C9.32617188,15.2690449 9.21118279,15.6440412 8.98120117,16.0014648 C8.75121955,16.3588885 8.33301084,16.7514627 7.7265625,17.1791992 C7.36620914,17.4282239 7.12524475,17.6025386 7.00366211,17.7021484 C6.88207947,17.8017583 6.73925863,17.9321281 6.57519531,18.0932617 L9.37011719,18.0932617 L9.37011719,19.5522461 Z"/>
</svg>
