<svg xmlns="http://www.w3.org/2000/svg" width="24" height="24" viewBox="0 0 24 24">
  <path fill="#C9C9C9" fill-rule="evenodd" d="M16.24,7.46 C16.24,6.4066614 15.57334,5.88 14.24,5.88 L14.24,5 L19.06,5 L19.06,5.88 C17.9666612,5.88 17.42,6.4066614 17.42,7.46 L17.42,11.42 C17.42,12.1933372 17.3466674,12.8966635 17.2,13.53 C17.0533326,14.1633365 16.7833353,14.7033311 16.39,15.15 C15.9966647,15.5966689 15.46667,15.9433321 14.8,16.19 C14.13333,16.4366679 13.2800052,16.56 12.24,16.56 C11.4533294,16.56 10.7300033,16.4500011 10.07,16.23 C9.4099967,16.0099989 8.8433357,15.7066686 8.37,15.32 C7.8966643,14.9333314 7.526668,14.4700027 7.26,13.93 C6.993332,13.3899973 6.86,12.8000032 6.86,12.16 L6.86,7.16 C6.86,6.3066624 6.2400062,5.88 5,5.88 L5,5 L12.02,5 L12.02,5.88 C10.7799938,5.88 10.16,6.3066624 10.16,7.16 L10.16,11.66 C10.16,12.0866688 10.1966663,12.5233311 10.27,12.97 C10.3433337,13.4166689 10.4833323,13.8199982 10.69,14.18 C10.8966677,14.5400018 11.1833315,14.8366655 11.55,15.07 C11.9166685,15.3033345 12.3933304,15.42 12.98,15.42 C14.1400058,15.42 14.9733308,15.1000032 15.48,14.46 C15.9866692,13.8199968 16.24,12.8866728 16.24,11.66 L16.24,7.46 Z M5.5,18 L19.5,18 L19.5,19 L5.5,19 L5.5,18 Z"/>
</svg>
